<svg width="345" height="54" viewBox="0 0 345 54" fill="none" xmlns="http://www.w3.org/2000/svg">
<rect width="345" height="54" rx="14" fill="#FAE100"/>
<path d="M26.0509 17C19.4002 17 14 21.2368 14 26.4662C14 29.8575 16.2738 32.8509 19.7139 34.5194C19.4616 35.4531 18.8044 37.9107 18.668 38.4307C18.5043 39.0818 18.909 39.0727 19.1728 38.8987L23.8067 35.7674C24.5467 35.8758 25.2938 35.9302 26.0418 35.9301C32.6925 35.9301 38.0927 31.6933 38.0927 26.4662C38.0927 21.2391 32.7016 17 26.0418 17" fill="#381E1F"/>
<path d="M17.6496 24.7232H18.8911C18.8911 24.7232 18.8911 28.1145 18.8911 28.8968C18.8911 29.4733 20.1803 29.4801 20.1781 28.8968V24.7571C20.1781 24.7571 20.5919 24.7571 21.4104 24.7571C22.1812 24.7571 22.1812 23.5521 21.4104 23.5521C20.5419 23.5521 17.6406 23.5272 17.6406 23.5272C16.913 23.5272 16.9152 24.7096 17.6406 24.7096" fill="#FAE100"/>
<path d="M23.5817 24.9422L24.2638 27.0901H22.8337L23.5817 24.9422ZM22.8086 23.9362C22.504 24.6144 21.4035 27.757 21.0374 28.5935C20.7736 29.1972 21.9128 29.6923 22.1743 29.0864L22.4244 28.225H24.6981C24.6981 28.225 24.6208 28.2589 24.9255 29.0502C25.1688 29.69 26.3466 29.2469 26.1033 28.598C25.7554 27.6937 24.5503 24.3928 24.3298 23.9271C24.2297 23.701 23.875 23.5563 23.5135 23.5563C23.3738 23.5441 23.2336 23.5727 23.11 23.6386C22.9865 23.7045 22.8849 23.8047 22.8177 23.9271" fill="#FAE100"/>
<path d="M26.5283 24.133C26.5283 25.2047 26.5283 28.6547 26.5283 28.6547C26.5283 28.6547 26.4283 29.333 27.0194 29.333H29.5206C30.1026 29.333 30.0981 28.1008 29.5206 28.1008C28.943 28.1008 27.8744 28.1008 27.8744 28.1008C27.8744 28.1008 27.8744 24.9062 27.8744 24.1308C27.8697 24.0481 27.848 23.9672 27.8106 23.8932C27.7732 23.8193 27.7209 23.7537 27.6569 23.7007C27.5929 23.6477 27.5186 23.6083 27.4387 23.5851C27.3588 23.5618 27.2749 23.5552 27.1922 23.5655C26.8557 23.5655 26.5215 23.7554 26.5215 24.133" fill="#FAE100"/>
<path d="M30.254 23.9632C30.2676 24.4311 30.2381 28.6816 30.2404 28.9981C30.2404 29.4955 31.5114 29.4932 31.5114 28.9981V27.3273L31.8866 27.0289L33.5191 29.2445C33.8488 29.6786 34.8834 28.8963 34.5582 28.4623L32.8233 26.1901C32.8233 26.1901 34.0011 24.924 34.465 24.4651C34.7378 24.1983 33.8988 23.3572 33.6283 23.6263C33.3577 23.8953 31.5205 25.7198 31.5205 25.7198C31.5205 25.7198 31.5364 24.5668 31.5205 23.9292C31.5205 23.6873 31.2158 23.572 30.9111 23.572C30.6064 23.572 30.2495 23.7054 30.2563 23.9654" fill="#FAE100"/>
<path d="M133.797 21.75C133.781 25.8828 132.516 29.5469 127.406 32.0625L126.594 30.9531C129.125 29.7109 130.633 28.2031 131.461 26.4297L126.891 26.8594L126.672 25.5781L131.922 25.2266C132.133 24.5078 132.25 23.75 132.305 22.9531H127.406V21.75H133.797ZM135.938 34.3125V20.3281H137.422V25.9219H139.594V27.1406H137.422V34.3125H135.938ZM147.625 21.75C147.609 25.8828 146.344 29.5469 141.234 32.0625L140.422 30.9531C142.953 29.7109 144.461 28.2031 145.289 26.4297L140.719 26.8594L140.5 25.5781L145.75 25.2266C145.961 24.5078 146.078 23.75 146.133 22.9531H141.234V21.75H147.625ZM149.766 34.3125V20.3281H151.25V25.9219H153.422V27.1406H151.25V34.3125H149.766ZM160.547 21.1719C163.539 21.1797 165.719 22.6562 165.719 24.8906C165.719 26.9844 163.891 28.3828 161.281 28.5938V31.3438H166.984V32.5781H154.172V31.3438H159.812V28.5938C157.219 28.3828 155.383 26.9844 155.391 24.8906C155.383 22.6562 157.57 21.1797 160.547 21.1719ZM156.828 24.8906C156.828 26.4609 158.391 27.4375 160.547 27.4531C162.719 27.4375 164.273 26.4609 164.281 24.8906C164.273 23.375 162.719 22.375 160.547 22.3906C158.391 22.375 156.828 23.375 156.828 24.8906ZM184.719 31.4062V32.6562H171.906V31.4062H177.547V28.9531H173.469V24.5H181.688V22.5312H173.438V21.3125H183.156V25.6875H174.938V27.7344H183.484V28.9531H179.016V31.4062H184.719ZM196.828 21.75V23.25C196.828 25.0625 196.828 27.0234 196.312 30.0156L194.797 29.875C195.359 27.0703 195.359 25.0156 195.359 23.25V22.9688H187.109V21.75H196.828ZM185.734 32.3438V31.1094H198.5V32.3438H185.734ZM211.172 20.3438V30.5156H209.688V20.3438H211.172ZM199.844 24.75C199.852 22.7266 201.461 21.2891 203.578 21.2812C205.688 21.2891 207.297 22.7266 207.297 24.75C207.297 26.8047 205.688 28.2344 203.578 28.2344C201.461 28.2344 199.852 26.8047 199.844 24.75ZM201.297 24.75C201.289 26.0703 202.273 26.9375 203.578 26.9375C204.859 26.9375 205.844 26.0703 205.844 24.75C205.844 23.4609 204.859 22.5781 203.578 22.5781C202.273 22.5781 201.289 23.4609 201.297 24.75ZM202.016 34.0312V29.4844H203.516V32.8281H211.594V34.0312H202.016Z" fill="black"/>
</svg>
