<svg width="345" height="54" viewBox="0 0 345 54" fill="none" xmlns="http://www.w3.org/2000/svg">
<rect x="0.5" y="0.5" width="344" height="53" rx="13.5" fill="black"/>
<rect x="0.5" y="0.5" width="344" height="53" rx="13.5" stroke="#4D4D4D"/>
<path d="M126.432 33L125.6 30.28H121.44L120.608 33H118L122.032 21.528H124.992L129.04 33H126.432ZM124.192 25.592C124.139 25.4107 124.069 25.1813 123.984 24.904C123.899 24.6267 123.813 24.344 123.728 24.056C123.643 23.768 123.573 23.5173 123.52 23.304C123.467 23.5173 123.392 23.784 123.296 24.104C123.211 24.4133 123.125 24.712 123.04 25C122.965 25.2773 122.907 25.4747 122.864 25.592L122.048 28.248H125.024L124.192 25.592ZM135.159 24.104C136.14 24.104 136.935 24.488 137.543 25.256C138.151 26.0133 138.455 27.1333 138.455 28.616C138.455 29.608 138.311 30.4453 138.023 31.128C137.735 31.8 137.34 32.3067 136.839 32.648C136.338 32.9893 135.756 33.16 135.095 33.16C134.679 33.16 134.316 33.1067 134.007 33C133.708 32.8933 133.452 32.7547 133.239 32.584C133.026 32.4133 132.839 32.232 132.679 32.04H132.551C132.594 32.2427 132.626 32.456 132.647 32.68C132.668 32.8933 132.679 33.1067 132.679 33.32V36.84H130.295V24.264H132.231L132.567 25.4H132.679C132.839 25.1653 133.031 24.952 133.255 24.76C133.479 24.5573 133.746 24.3973 134.055 24.28C134.375 24.1627 134.743 24.104 135.159 24.104ZM134.391 26.008C133.975 26.008 133.644 26.0933 133.399 26.264C133.154 26.4347 132.972 26.696 132.855 27.048C132.748 27.3893 132.69 27.8213 132.679 28.344V28.6C132.679 29.1653 132.732 29.6453 132.839 30.04C132.946 30.424 133.127 30.7173 133.383 30.92C133.639 31.1227 133.986 31.224 134.423 31.224C134.786 31.224 135.084 31.1227 135.319 30.92C135.554 30.7173 135.73 30.4187 135.847 30.024C135.964 29.6293 136.023 29.1493 136.023 28.584C136.023 27.7307 135.89 27.0907 135.623 26.664C135.367 26.2267 134.956 26.008 134.391 26.008ZM145.284 24.104C146.265 24.104 147.06 24.488 147.668 25.256C148.276 26.0133 148.58 27.1333 148.58 28.616C148.58 29.608 148.436 30.4453 148.148 31.128C147.86 31.8 147.465 32.3067 146.964 32.648C146.463 32.9893 145.881 33.16 145.22 33.16C144.804 33.16 144.441 33.1067 144.132 33C143.833 32.8933 143.577 32.7547 143.364 32.584C143.151 32.4133 142.964 32.232 142.804 32.04H142.676C142.719 32.2427 142.751 32.456 142.772 32.68C142.793 32.8933 142.804 33.1067 142.804 33.32V36.84H140.42V24.264H142.356L142.692 25.4H142.804C142.964 25.1653 143.156 24.952 143.38 24.76C143.604 24.5573 143.871 24.3973 144.18 24.28C144.5 24.1627 144.868 24.104 145.284 24.104ZM144.516 26.008C144.1 26.008 143.769 26.0933 143.524 26.264C143.279 26.4347 143.097 26.696 142.98 27.048C142.873 27.3893 142.815 27.8213 142.804 28.344V28.6C142.804 29.1653 142.857 29.6453 142.964 30.04C143.071 30.424 143.252 30.7173 143.508 30.92C143.764 31.1227 144.111 31.224 144.548 31.224C144.911 31.224 145.209 31.1227 145.444 30.92C145.679 30.7173 145.855 30.4187 145.972 30.024C146.089 29.6293 146.148 29.1493 146.148 28.584C146.148 27.7307 146.015 27.0907 145.748 26.664C145.492 26.2267 145.081 26.008 144.516 26.008ZM152.929 33H150.545V20.84H152.929V33ZM159.02 24.104C159.831 24.104 160.524 24.2587 161.1 24.568C161.687 24.8773 162.14 25.3253 162.46 25.912C162.78 26.4987 162.94 27.2187 162.94 28.072V29.224H157.308C157.329 29.896 157.527 30.424 157.9 30.808C158.284 31.192 158.812 31.384 159.484 31.384C160.049 31.384 160.561 31.3307 161.02 31.224C161.479 31.1067 161.953 30.9307 162.444 30.696V32.536C162.017 32.7493 161.564 32.904 161.084 33C160.615 33.1067 160.044 33.16 159.372 33.16C158.497 33.16 157.724 33 157.052 32.68C156.38 32.3493 155.852 31.8533 155.468 31.192C155.084 30.5307 154.892 29.6987 154.892 28.696C154.892 27.672 155.063 26.824 155.404 26.152C155.756 25.4693 156.241 24.9573 156.86 24.616C157.479 24.2747 158.199 24.104 159.02 24.104ZM159.036 25.8C158.577 25.8 158.193 25.9493 157.884 26.248C157.585 26.5467 157.409 27.0107 157.356 27.64H160.7C160.7 27.288 160.636 26.9733 160.508 26.696C160.391 26.4187 160.209 26.2 159.964 26.04C159.719 25.88 159.409 25.8 159.036 25.8ZM164.281 31.064H177.689V32.792H164.281V31.064ZM169.897 28.264H172.025V31.768H169.897V28.264ZM165.785 20.568H176.185V25.496H167.929V27.992H165.817V23.832H174.073V22.248H165.785V20.568ZM165.817 27.144H176.521V28.856H165.817V27.144ZM183.156 31.064H196.564V32.792H183.156V31.064ZM188.772 28.264H190.9V31.768H188.772V28.264ZM184.66 20.568H195.06V25.496H186.804V27.992H184.692V23.832H192.948V22.248H184.66V20.568ZM184.692 27.144H195.396V28.856H184.692V27.144ZM199.235 20.968H208.627V22.648H199.235V20.968ZM197.875 30.76H211.267V32.488H197.875V30.76ZM207.507 20.968H209.619V22.728C209.619 24.808 209.619 26.824 209.091 29.864L206.963 29.688C207.507 26.84 207.507 24.728 207.507 22.728V20.968ZM222.754 19.624H224.898V30.264H222.754V19.624ZM215.026 32.472H225.266V34.168H215.026V32.472ZM215.026 29.192H217.154V33.16H215.026V29.192ZM216.834 20.552C219.106 20.552 220.85 22.12 220.85 24.312C220.85 26.488 219.106 28.072 216.834 28.072C214.562 28.072 212.802 26.488 212.802 24.312C212.802 22.12 214.562 20.552 216.834 20.552ZM216.834 22.392C215.73 22.392 214.882 23.096 214.882 24.312C214.882 25.512 215.73 26.216 216.834 26.216C217.922 26.216 218.77 25.512 218.77 24.312C218.77 23.096 217.922 22.392 216.834 22.392Z" fill="white"/>
<path d="M27.1133 21.7788C27.2923 21.7788 27.5975 21.8073 28.0288 21.8643C28.4601 21.9212 28.9321 22.084 29.4448 22.3525C29.9657 22.613 30.4377 23.0483 30.8608 23.6587C30.8364 23.6831 30.7184 23.7726 30.5068 23.9272C30.2952 24.0737 30.0592 24.2935 29.7988 24.5864C29.5384 24.8713 29.3105 25.2375 29.1152 25.6851C28.9199 26.1245 28.8223 26.6494 28.8223 27.2598C28.8223 27.9596 28.9443 28.5537 29.1885 29.042C29.4408 29.5303 29.7297 29.925 30.0552 30.2261C30.3888 30.519 30.6818 30.7347 30.9341 30.873C31.1945 31.0114 31.3328 31.0846 31.3491 31.0928C31.341 31.1253 31.2352 31.4142 31.0317 31.9595C30.8364 32.5047 30.5109 33.111 30.0552 33.7783C29.6564 34.3561 29.2251 34.8892 28.7612 35.3774C28.3055 35.8657 27.7562 36.1099 27.1133 36.1099C26.682 36.1099 26.328 36.0488 26.0513 35.9268C25.7746 35.7965 25.4897 35.6704 25.1968 35.5483C24.9038 35.4181 24.5091 35.353 24.0127 35.353C23.5326 35.353 23.1297 35.4181 22.8042 35.5483C22.4868 35.6785 22.1816 35.8088 21.8887 35.939C21.6038 36.0692 21.2661 36.1343 20.8755 36.1343C20.2814 36.1343 19.7606 35.8983 19.313 35.4263C18.8654 34.9543 18.4056 34.3887 17.9336 33.7295C17.3883 32.9482 16.9204 31.9961 16.5298 30.873C16.1473 29.7419 15.9561 28.6025 15.9561 27.4551C15.9561 26.2262 16.188 25.1968 16.6519 24.3667C17.1157 23.5285 17.7098 22.8978 18.4341 22.4746C19.1665 22.0433 19.9233 21.8276 20.7046 21.8276C21.1196 21.8276 21.5103 21.8968 21.8765 22.0352C22.2427 22.1654 22.5845 22.2996 22.9019 22.438C23.2274 22.5763 23.5203 22.6455 23.7808 22.6455C24.033 22.6455 24.326 22.5723 24.6597 22.4258C24.9933 22.2793 25.3677 22.1369 25.7827 21.9985C26.1978 21.8521 26.6413 21.7788 27.1133 21.7788ZM26.4419 20.2285C26.1245 20.611 25.7257 20.9325 25.2456 21.1929C24.7655 21.4451 24.3097 21.5713 23.8784 21.5713C23.7889 21.5713 23.7035 21.5632 23.6221 21.5469C23.6139 21.5225 23.6058 21.4777 23.5977 21.4126C23.5895 21.3475 23.5854 21.2783 23.5854 21.2051C23.5854 20.7168 23.6912 20.2448 23.9028 19.7891C24.1144 19.3252 24.3545 18.9427 24.623 18.6416C24.9648 18.2347 25.3962 17.897 25.917 17.6284C26.4378 17.3599 26.9342 17.2174 27.4062 17.2012C27.4307 17.307 27.4429 17.4331 27.4429 17.5796C27.4429 18.0679 27.3493 18.5439 27.1621 19.0078C26.9749 19.4635 26.7349 19.8704 26.4419 20.2285Z" fill="white"/>
</svg>
